# Blender v2.79 (sub 0) OBJ File: ''
# www.blender.org
mtllib TestNavMesh.mtl
o NavMesh_Sphere.001
v 0.000000 0.555570 -0.831470
v 0.000000 0.382683 -0.923880
v 0.000000 0.195090 -0.980785
v 0.000000 0.000000 -1.000000
v 0.000000 -0.195090 -0.980785
v 0.000000 -0.831470 -0.555570
v 0.162212 0.555570 -0.815493
v 0.180240 0.382683 -0.906127
v 0.191342 0.195090 -0.961940
v 0.195090 0.000000 -0.980785
v 0.137950 -0.707107 -0.693520
v 0.108386 -0.831470 -0.544895
v 0.074658 -0.923880 -0.375330
v 0.318190 0.555570 -0.768178
v 0.353553 0.382683 -0.853553
v 0.375330 0.195090 -0.906127
v 0.270598 -0.707107 -0.653281
v 0.212608 -0.831470 -0.513280
v 0.146447 -0.923880 -0.353553
v 0.392848 0.707107 -0.587938
v 0.461940 0.555570 -0.691342
v 0.513280 0.382683 -0.768178
v 0.544895 -0.195090 -0.815493
v 0.513280 -0.382683 -0.768178
v 0.461940 -0.555570 -0.691342
v 0.392848 -0.707107 -0.587938
v 0.308658 -0.831470 -0.461940
v 0.212608 -0.923880 -0.318189
v 0.500000 0.707107 -0.500000
v 0.587938 0.555570 -0.587938
v 0.653282 0.382683 -0.653281
v 0.693520 0.195090 -0.693520
v 0.707107 0.000000 -0.707107
v 0.693520 -0.195090 -0.693520
v 0.653282 -0.382683 -0.653281
v 0.587938 -0.555570 -0.587938
v 0.500000 -0.707107 -0.500000
v 0.392848 -0.831470 -0.392847
v 0.270598 -0.923880 -0.270598
v 0.587938 0.707107 -0.392847
v 0.691342 0.555570 -0.461940
v 0.768178 0.382683 -0.513280
v 0.815493 0.195090 -0.544895
v 0.831470 0.000000 -0.555570
v 0.815493 -0.195090 -0.544895
v 0.768178 -0.382683 -0.513280
v 0.691342 -0.555570 -0.461940
v 0.587938 -0.707107 -0.392847
v 0.461940 -0.831470 -0.308658
v 0.318190 -0.923880 -0.212607
v 0.653282 0.707107 -0.270598
v 0.768178 0.555570 -0.318189
v 0.853554 0.382683 -0.353553
v 0.906128 0.195090 -0.375330
v 0.923880 0.000000 -0.382683
v 0.906128 -0.195090 -0.375330
v 0.853554 -0.382683 -0.353553
v 0.768178 -0.555570 -0.318189
v 0.653282 -0.707107 -0.270598
v 0.513280 -0.831470 -0.212607
v 0.353554 -0.923880 -0.146446
v 0.693520 0.707107 -0.137949
v 0.815493 0.555570 -0.162211
v 0.906128 0.382683 -0.180240
v 0.961940 0.195090 -0.191341
v 0.980785 0.000000 -0.195090
v 0.815493 -0.555570 -0.162211
v 0.693520 -0.707107 -0.137949
v 0.544895 -0.831470 -0.108386
v 0.375330 -0.923880 -0.074658
v 0.831470 0.555570 0.000000
v 0.923880 0.382683 0.000000
v 0.980785 0.195090 0.000000
v 0.831470 -0.555570 0.000000
v 0.707107 -0.707107 0.000000
v 0.555570 -0.831470 0.000000
v 0.382684 -0.923880 0.000000
v 0.815493 0.555570 0.162212
v 0.906128 0.382683 0.180240
v 0.961940 0.195090 0.191342
v 0.980785 0.000000 0.195091
v 0.961940 -0.195090 0.191342
v 0.906128 -0.382683 0.180240
v 0.815493 -0.555570 0.162212
v 0.693520 -0.707107 0.137950
v 0.544895 -0.831470 0.108387
v 0.375330 -0.923880 0.074658
v 0.853554 0.382683 0.353554
v 0.906127 0.195090 0.375331
v 0.923880 0.000000 0.382684
v 0.906127 -0.195090 0.375331
v 0.853554 -0.382683 0.353554
v 0.768178 -0.555570 0.318190
v 0.653282 -0.707107 0.270598
v 0.513280 -0.831470 0.212608
v 0.353553 -0.923880 0.146447
v 0.768178 0.382683 0.513280
v 0.815493 0.195090 0.544895
v 0.831470 0.000000 0.555571
v 0.815493 -0.195090 0.544895
v 0.768178 -0.382683 0.513280
v 0.691342 -0.555570 0.461940
v 0.587938 -0.707107 0.392848
v 0.461940 -0.831470 0.308659
v 0.318190 -0.923880 0.212608
v 0.392848 0.831470 0.392848
v 0.500000 0.707107 0.500000
v 0.587938 0.555570 0.587938
v 0.653282 0.382683 0.653282
v 0.693520 0.195090 0.693520
v 0.707107 0.000000 0.707107
v 0.693520 -0.195090 0.693520
v 0.653282 -0.382683 0.653282
v 0.587938 -0.555570 0.587938
v 0.500000 -0.707107 0.500000
v 0.392848 -0.831470 0.392848
v 0.308658 0.831470 0.461940
v 0.392848 0.707107 0.587938
v 0.461940 0.555570 0.691342
v 0.513280 0.382683 0.768178
v 0.544895 0.195090 0.815493
v 0.555570 0.000000 0.831470
v 0.544895 -0.195090 0.815493
v 0.513280 -0.382683 0.768178
v 0.461940 -0.555570 0.691342
v 0.392848 -0.707107 0.587938
v 0.308658 -0.831470 0.461940
v 0.212608 0.831470 0.513280
v 0.270598 0.707107 0.653282
v 0.318190 0.555570 0.768178
v 0.353553 0.382683 0.853554
v 0.375330 0.195090 0.906128
v 0.382683 0.000000 0.923880
v 0.375330 -0.195090 0.906128
v 0.318190 -0.555570 0.768178
v 0.270598 -0.707107 0.653282
v 0.212608 -0.831470 0.513280
v 0.074658 0.923880 0.375331
v 0.108386 0.831470 0.544896
v 0.137950 0.707107 0.693520
v 0.162212 0.555570 0.815493
v 0.180240 0.382683 0.906128
v 0.191342 0.195090 0.961940
v 0.195090 0.000000 0.980786
v 0.191342 -0.195090 0.961940
v 0.180240 -0.382683 0.906128
v 0.162212 -0.555570 0.815493
v 0.137950 -0.707107 0.693520
v 0.108386 -0.831470 0.544895
v 0.000000 0.923880 0.382684
v 0.000000 0.831470 0.555571
v -0.000000 0.707107 0.707107
v -0.000000 0.555570 0.831470
v 0.000000 0.382683 0.923880
v -0.000000 0.195090 0.980785
v -0.000000 0.000000 1.000000
v 0.000000 -0.382683 0.923880
v -0.000000 -0.555570 0.831470
v -0.000000 -0.707107 0.707107
v -0.000000 -0.831470 0.555570
v -0.074658 0.923880 0.375331
v -0.108386 0.831470 0.544896
v -0.137950 0.707107 0.693520
v -0.180240 -0.382683 0.906128
v -0.162212 -0.555570 0.815493
v -0.137950 -0.707107 0.693520
v -0.146447 0.923880 0.353554
v -0.212608 0.831470 0.513280
v -0.270598 0.707107 0.653282
v -0.353553 -0.382683 0.853554
v -0.318190 -0.555570 0.768178
v -0.270598 -0.707107 0.653282
v -0.212608 0.923880 0.318190
v -0.308658 0.831470 0.461940
v -0.392847 0.707107 0.587938
v -0.544895 -0.195090 0.815493
v -0.513280 -0.382683 0.768178
v -0.461940 -0.555570 0.691342
v -0.270598 0.923880 0.270598
v -0.392848 0.831470 0.392848
v -0.500000 0.707107 0.500000
v -0.693520 -0.195090 0.693520
v -0.653281 -0.382683 0.653282
v -0.587938 -0.555570 0.587938
v -0.318190 0.923880 0.212608
v -0.461940 0.831470 0.308659
v -0.587938 0.707107 0.392848
v -0.691342 0.555570 0.461940
v -0.815493 -0.195090 0.544895
v -0.768178 -0.382683 0.513280
v -0.691342 -0.555570 0.461940
v -0.353553 0.923880 0.146447
v -0.513280 0.831470 0.212608
v -0.653281 0.707107 0.270598
v -0.768177 0.555570 0.318190
v -0.906127 -0.195090 0.375330
v -0.853553 -0.382683 0.353554
v -0.768177 -0.555570 0.318190
v -0.544895 0.831470 0.108387
v -0.693520 0.707107 0.137950
v -0.815493 0.555570 0.162212
v -0.961939 -0.195090 0.191342
v -0.906127 -0.382683 0.180240
v -0.815493 -0.555570 0.162212
v -0.555570 0.831470 0.000000
v -0.707107 0.707107 0.000000
v -0.831469 0.555570 0.000000
v -0.923879 0.382683 0.000000
v -0.980785 -0.195090 0.000000
v -0.923879 -0.382683 0.000000
v -0.544895 0.831470 -0.108386
v -0.693520 0.707107 -0.137949
v -0.815493 0.555570 -0.162211
v -0.906127 0.382683 -0.180240
v -0.961939 0.195090 -0.191342
v -0.980785 0.000000 -0.195090
v -0.961939 -0.195090 -0.191342
v -0.906127 -0.382683 -0.180240
v -0.653281 0.707107 -0.270598
v -0.768177 0.555570 -0.318189
v -0.853553 0.382683 -0.353553
v -0.906127 0.195090 -0.375330
v -0.923879 0.000000 -0.382683
v -0.906127 -0.195090 -0.375330
v -0.853553 -0.382683 -0.353553
v -0.691341 0.555570 -0.461939
v -0.768178 0.382683 -0.513280
v -0.815493 0.195090 -0.544895
v -0.831469 0.000000 -0.555570
v -0.815493 -0.195090 -0.544895
v -0.768178 -0.382683 -0.513280
v -0.653281 0.382683 -0.653281
v -0.693519 0.195090 -0.693519
v -0.707106 0.000000 -0.707106
v -0.693519 -0.195090 -0.693519
v -0.653281 -0.382683 -0.653281
v -0.544895 0.195090 -0.815492
v -0.555570 0.000000 -0.831469
v -0.544895 -0.195090 -0.815492
v -0.513280 -0.382683 -0.768177
v -0.461939 -0.555570 -0.691341
v -0.392847 -0.707107 -0.587937
v -0.308658 -0.831470 -0.461939
v -0.212607 -0.923880 -0.318189
v -0.375330 0.195090 -0.906127
v -0.382683 0.000000 -0.923879
v -0.375330 -0.195090 -0.906127
v -0.353553 -0.382683 -0.853553
v -0.318189 -0.555570 -0.768177
v -0.270598 -0.707107 -0.653281
v -0.212607 -0.831470 -0.513279
v -0.146446 -0.923880 -0.353553
v -0.162211 0.555570 -0.815492
v -0.180240 0.382683 -0.906127
v -0.191341 0.195090 -0.961939
v -0.195090 0.000000 -0.980785
v -0.191341 -0.195090 -0.961939
v -0.180240 -0.382683 -0.906127
v -0.162211 -0.555570 -0.815492
v -0.137950 -0.707107 -0.693520
v -0.108386 -0.831470 -0.544895
v -0.074658 -0.923880 -0.375330
v 0.000000 -0.382683 -0.923879
v 0.000000 -0.707107 -0.707106
v 0.000000 -0.923880 -0.382683
vn 0.0624 -0.7715 -0.6332
vn 0.0865 0.4696 -0.8786
vn 0.0464 -0.8810 -0.4709
vn 0.0938 0.2890 -0.9527
vn 0.0975 0.0975 -0.9904
vn 0.1847 -0.7715 -0.6088
vn 0.2563 0.4696 -0.8448
vn 0.1374 -0.8810 -0.4528
vn 0.2779 0.2890 -0.9161
vn 0.4162 0.4696 -0.7786
vn 0.2230 -0.8810 -0.4173
vn 0.2999 -0.7715 -0.5611
vn 0.6073 -0.2890 -0.7400
vn 0.5601 -0.4696 -0.6825
vn 0.4913 -0.6326 -0.5987
vn 0.4913 0.6326 -0.5987
vn 0.4036 -0.7715 -0.4918
vn 0.5601 0.4696 -0.6825
vn 0.3002 -0.8810 -0.3658
vn 0.3658 -0.8810 -0.3002
vn 0.7693 0.0975 -0.6314
vn 0.7693 -0.0975 -0.6314
vn 0.7400 -0.2890 -0.6073
vn 0.6825 -0.4696 -0.5601
vn 0.5987 -0.6326 -0.4913
vn 0.5987 0.6326 -0.4913
vn 0.4918 -0.7715 -0.4036
vn 0.6825 0.4696 -0.5601
vn 0.7786 -0.4696 -0.4162
vn 0.6831 -0.6326 -0.3651
vn 0.6831 0.6326 -0.3651
vn 0.5611 -0.7715 -0.2999
vn 0.7786 0.4696 -0.4162
vn 0.4173 -0.8810 -0.2231
vn 0.8443 0.2890 -0.4513
vn 0.8777 0.0976 -0.4691
vn 0.8777 -0.0976 -0.4691
vn 0.9161 0.2890 -0.2779
vn 0.9524 0.0976 -0.2889
vn 0.7412 -0.6326 -0.2248
vn 0.7412 0.6326 -0.2248
vn 0.6088 -0.7715 -0.1847
vn 0.8448 0.4696 -0.2563
vn 0.4528 -0.8810 -0.1374
vn 0.7708 -0.6326 -0.0759
vn 0.6332 -0.7715 -0.0624
vn 0.8786 0.4696 -0.0865
vn 0.4709 -0.8810 -0.0464
vn 0.9527 0.2890 -0.0938
vn 0.7708 -0.6326 0.0759
vn 0.6332 -0.7715 0.0624
vn 0.8786 0.4696 0.0865
vn 0.4709 -0.8810 0.0464
vn 0.9527 0.2890 0.0938
vn 0.7412 -0.6326 0.2248
vn 0.6088 -0.7715 0.1847
vn 0.4528 -0.8810 0.1374
vn 0.9161 0.2890 0.2779
vn 0.9524 0.0976 0.2889
vn 0.9524 -0.0976 0.2889
vn 0.9161 -0.2890 0.2779
vn 0.8777 -0.0976 0.4691
vn 0.8443 -0.2890 0.4513
vn 0.7786 -0.4696 0.4162
vn 0.6831 -0.6326 0.3651
vn 0.5611 -0.7715 0.2999
vn 0.4173 -0.8810 0.2231
vn 0.8443 0.2890 0.4513
vn 0.8777 0.0976 0.4691
vn 0.4918 -0.7715 0.4036
vn 0.7400 0.2890 0.6073
vn 0.7693 0.0976 0.6314
vn 0.7693 -0.0976 0.6314
vn 0.7400 -0.2890 0.6073
vn 0.6825 -0.4696 0.5601
vn 0.5987 -0.6326 0.4913
vn 0.6314 -0.0976 0.7693
vn 0.5601 -0.4696 0.6825
vn 0.4036 0.7715 0.4918
vn 0.4913 -0.6326 0.5987
vn 0.4913 0.6326 0.5987
vn 0.4036 -0.7715 0.4918
vn 0.6314 0.0976 0.7693
vn 0.2999 -0.7715 0.5611
vn 0.4162 0.4696 0.7786
vn 0.4513 0.2890 0.8443
vn 0.4691 0.0976 0.8777
vn 0.4691 -0.0976 0.8777
vn 0.2999 0.7715 0.5611
vn 0.3651 -0.6326 0.6831
vn 0.3651 0.6326 0.6831
vn 0.1847 0.7715 0.6088
vn 0.2248 -0.6326 0.7412
vn 0.2248 0.6326 0.7412
vn 0.1847 -0.7715 0.6088
vn 0.2563 0.4696 0.8448
vn 0.2779 0.2890 0.9161
vn 0.2889 0.0976 0.9524
vn 0.2889 -0.0976 0.9524
vn 0.0865 0.4696 0.8786
vn 0.0938 0.2890 0.9527
vn 0.0975 0.0976 0.9904
vn 0.0464 0.8810 0.4709
vn 0.0865 -0.4696 0.8786
vn 0.0624 0.7715 0.6332
vn 0.0759 -0.6326 0.7708
vn 0.0759 0.6326 0.7708
vn 0.0624 -0.7715 0.6332
vn -0.0464 0.8810 0.4709
vn -0.0865 -0.4696 0.8786
vn -0.0624 0.7715 0.6332
vn -0.0759 -0.6326 0.7708
vn -0.1374 0.8810 0.4528
vn -0.2563 -0.4696 0.8448
vn -0.1847 0.7715 0.6088
vn -0.2248 -0.6326 0.7412
vn -0.4162 -0.4696 0.7786
vn -0.2999 0.7715 0.5611
vn -0.2230 0.8810 0.4173
vn -0.6073 -0.2890 0.7400
vn -0.3002 0.8810 0.3658
vn -0.5601 -0.4696 0.6825
vn -0.4036 0.7715 0.4918
vn -0.4918 0.7715 0.4036
vn -0.7400 -0.2890 0.6073
vn -0.3658 0.8810 0.3002
vn -0.6825 -0.4696 0.5601
vn -0.8443 -0.2890 0.4513
vn -0.4173 0.8810 0.2231
vn -0.7786 -0.4696 0.4162
vn -0.5611 0.7715 0.2999
vn -0.6831 0.6326 0.3651
vn -0.7412 0.6326 0.2248
vn -0.9161 -0.2890 0.2779
vn -0.8448 -0.4696 0.2563
vn -0.6088 0.7715 0.1847
vn -0.9527 -0.2890 0.0938
vn -0.6332 0.7715 0.0624
vn -0.7708 0.6326 0.0759
vn -0.7708 0.6326 -0.0759
vn -0.8786 0.4696 -0.0865
vn -0.9527 -0.2890 -0.0938
vn -0.6332 0.7715 -0.0624
vn -0.9524 -0.0976 -0.2889
vn -0.9161 -0.2890 -0.2779
vn -0.7412 0.6326 -0.2248
vn -0.8448 0.4696 -0.2563
vn -0.9161 0.2890 -0.2779
vn -0.7786 0.4696 -0.4162
vn -0.8443 0.2890 -0.4513
vn -0.8777 0.0976 -0.4691
vn -0.8777 -0.0976 -0.4691
vn -0.8443 -0.2890 -0.4513
vn -0.7400 0.2890 -0.6073
vn -0.7693 0.0976 -0.6314
vn -0.7693 -0.0976 -0.6314
vn -0.6314 0.0976 -0.7693
vn -0.6314 -0.0976 -0.7693
vn -0.6073 -0.2890 -0.7400
vn -0.4162 -0.4696 -0.7786
vn -0.3651 -0.6326 -0.6831
vn -0.2999 -0.7715 -0.5611
vn -0.2230 -0.8810 -0.4173
vn -0.4691 -0.0976 -0.8777
vn -0.4513 -0.2890 -0.8443
vn -0.2889 0.0976 -0.9524
vn -0.2889 -0.0976 -0.9524
vn -0.2779 -0.2890 -0.9161
vn -0.2563 -0.4696 -0.8448
vn -0.2248 -0.6326 -0.7412
vn -0.1847 -0.7715 -0.6088
vn -0.1374 -0.8810 -0.4528
vn -0.0624 -0.7715 -0.6332
vn -0.0865 0.4696 -0.8786
vn -0.0464 -0.8810 -0.4709
vn -0.0938 0.2890 -0.9527
vn -0.0976 0.0976 -0.9904
vn -0.0976 -0.0976 -0.9904
vn -0.0938 -0.2890 -0.9527
usemtl None
s off
f 6//1 264//1 11//1 12//1
f 2//2 1//2 7//2 8//2
f 265//3 6//3 12//3 13//3
f 3//4 2//4 8//4 9//4
f 4//5 3//5 9//5 10//5
f 12//6 11//6 17//6 18//6
f 8//7 7//7 14//7 15//7
f 13//8 12//8 18//8 19//8
f 9//9 8//9 15//9 16//9
f 15//10 14//10 21//10 22//10
f 19//11 18//11 27//11 28//11
f 18//12 17//12 26//12 27//12
f 24//13 23//13 34//13 35//13
f 25//14 24//14 35//14 36//14
f 26//15 25//15 36//15 37//15
f 21//16 20//16 29//16 30//16
f 27//17 26//17 37//17 38//17
f 22//18 21//18 30//18 31//18
f 28//19 27//19 38//19 39//19
f 39//20 38//20 49//20 50//20
f 33//21 32//21 43//21 44//21
f 34//22 33//22 44//22 45//22
f 35//23 34//23 45//23 46//23
f 36//24 35//24 46//24 47//24
f 37//25 36//25 47//25 48//25
f 30//26 29//26 40//26 41//26
f 38//27 37//27 48//27 49//27
f 31//28 30//28 41//28 42//28
f 47//29 46//29 57//29 58//29
f 48//30 47//30 58//30 59//30
f 41//31 40//31 51//31 52//31
f 49//32 48//32 59//32 60//32
f 42//33 41//33 52//33 53//33
f 50//34 49//34 60//34 61//34
f 43//35 42//35 53//35 54//35
f 44//36 43//36 54//36 55//36
f 45//37 44//37 55//37 56//37
f 54//38 53//38 64//38 65//38
f 55//39 54//39 65//39 66//39
f 59//40 58//40 67//40 68//40
f 52//41 51//41 62//41 63//41
f 60//42 59//42 68//42 69//42
f 53//43 52//43 63//43 64//43
f 61//44 60//44 69//44 70//44
f 68//45 67//45 74//45 75//45
f 69//46 68//46 75//46 76//46
f 64//47 63//47 71//47 72//47
f 70//48 69//48 76//48 77//48
f 65//49 64//49 72//49 73//49
f 75//50 74//50 84//50 85//50
f 76//51 75//51 85//51 86//51
f 72//52 71//52 78//52 79//52
f 77//53 76//53 86//53 87//53
f 73//54 72//54 79//54 80//54
f 85//55 84//55 93//55 94//55
f 86//56 85//56 94//56 95//56
f 87//57 86//57 95//57 96//57
f 80//58 79//58 88//58 89//58
f 81//59 80//59 89//59 90//59
f 82//60 81//60 90//60 91//60
f 83//61 82//61 91//61 92//61
f 91//62 90//62 99//62 100//62
f 92//63 91//63 100//63 101//63
f 93//64 92//64 101//64 102//64
f 94//65 93//65 102//65 103//65
f 95//66 94//66 103//66 104//66
f 96//67 95//67 104//67 105//67
f 89//68 88//68 97//68 98//68
f 90//69 89//69 98//69 99//69
f 104//70 103//70 115//70 116//70
f 98//71 97//71 109//71 110//71
f 99//72 98//72 110//72 111//72
f 100//73 99//73 111//73 112//73
f 101//74 100//74 112//74 113//74
f 102//75 101//75 113//75 114//75
f 103//76 102//76 114//76 115//76
f 112//77 111//77 122//77 123//77
f 114//78 113//78 124//78 125//78
f 107//79 106//79 117//79 118//79
f 115//80 114//80 125//80 126//80
f 108//81 107//81 118//81 119//81
f 116//82 115//82 126//82 127//82
f 111//83 110//83 121//83 122//83
f 127//84 126//84 136//84 137//84
f 120//85 119//85 130//85 131//85
f 121//86 120//86 131//86 132//86
f 122//87 121//87 132//87 133//87
f 123//88 122//88 133//88 134//88
f 118//89 117//89 128//89 129//89
f 126//90 125//90 135//90 136//90
f 119//91 118//91 129//91 130//91
f 129//92 128//92 139//92 140//92
f 136//93 135//93 147//93 148//93
f 130//94 129//94 140//94 141//94
f 137//95 136//95 148//95 149//95
f 131//96 130//96 141//96 142//96
f 132//97 131//97 142//97 143//97
f 133//98 132//98 143//98 144//98
f 134//99 133//99 144//99 145//99
f 142//100 141//100 153//100 154//100
f 143//101 142//101 154//101 155//101
f 144//102 143//102 155//102 156//102
f 139//103 138//103 150//103 151//103
f 147//104 146//104 157//104 158//104
f 140//105 139//105 151//105 152//105
f 148//106 147//106 158//106 159//106
f 141//107 140//107 152//107 153//107
f 149//108 148//108 159//108 160//108
f 151//109 150//109 161//109 162//109
f 158//110 157//110 164//110 165//110
f 152//111 151//111 162//111 163//111
f 159//112 158//112 165//112 166//112
f 162//113 161//113 167//113 168//113
f 165//114 164//114 170//114 171//114
f 163//115 162//115 168//115 169//115
f 166//116 165//116 171//116 172//116
f 171//117 170//117 177//117 178//117
f 169//118 168//118 174//118 175//118
f 168//119 167//119 173//119 174//119
f 177//120 176//120 182//120 183//120
f 174//121 173//121 179//121 180//121
f 178//122 177//122 183//122 184//122
f 175//123 174//123 180//123 181//123
f 181//124 180//124 186//124 187//124
f 183//125 182//125 189//125 190//125
f 180//126 179//126 185//126 186//126
f 184//127 183//127 190//127 191//127
f 190//128 189//128 196//128 197//128
f 186//129 185//129 192//129 193//129
f 191//130 190//130 197//130 198//130
f 187//131 186//131 193//131 194//131
f 188//132 187//132 194//132 195//132
f 195//133 194//133 200//133 201//133
f 197//134 196//134 202//134 203//134
f 198//135 197//135 203//135 204//135
f 194//136 193//136 199//136 200//136
f 203//137 202//137 209//137 210//137
f 200//138 199//138 205//138 206//138
f 201//139 200//139 206//139 207//139
f 207//140 206//140 212//140 213//140
f 208//141 207//141 213//141 214//141
f 210//142 209//142 217//142 218//142
f 206//143 205//143 211//143 212//143
f 217//144 216//144 223//144 224//144
f 218//145 217//145 224//145 225//145
f 213//146 212//146 219//146 220//146
f 214//147 213//147 220//147 221//147
f 215//148 214//148 221//148 222//148
f 221//149 220//149 226//149 227//149
f 222//150 221//150 227//150 228//150
f 223//151 222//151 228//151 229//151
f 224//152 223//152 229//152 230//152
f 225//153 224//153 230//153 231//153
f 228//154 227//154 232//154 233//154
f 229//155 228//155 233//155 234//155
f 230//156 229//156 234//156 235//156
f 234//157 233//157 237//157 238//157
f 235//158 234//158 238//158 239//158
f 236//159 235//159 239//159 240//159
f 241//160 240//160 248//160 249//160
f 242//161 241//161 249//161 250//161
f 243//162 242//162 250//162 251//162
f 244//163 243//163 251//163 252//163
f 239//164 238//164 246//164 247//164
f 240//165 239//165 247//165 248//165
f 246//166 245//166 255//166 256//166
f 247//167 246//167 256//167 257//167
f 248//168 247//168 257//168 258//168
f 249//169 248//169 258//169 259//169
f 250//170 249//170 259//170 260//170
f 251//171 250//171 260//171 261//171
f 252//172 251//172 261//172 262//172
f 261//173 260//173 264//173 6//173
f 254//174 253//174 1//174 2//174
f 262//175 261//175 6//175 265//175
f 255//176 254//176 2//176 3//176
f 256//177 255//177 3//177 4//177
f 257//178 256//178 4//178 5//178
f 258//179 257//179 5//179 263//179
